# xmcd
#
# Track frame offsets:
# 150
# 20122
# 35568
# 58825
# 80625
# 114517
# 131052
# 166662
# 181236
# 201521
# 229876
# 241221
# 259294
#
# Disc length: 3715 seconds
#
# Revision: 0
# Processed by: cddbd v1.4PL0 Copyright (c) Steve Scherf et al.
# Submitted via: Audion 3.0.2 (http://www.panic.com/audion/)
#
DISCID=ba0e810d
DTITLE=mix5 - sgg
DYEAR=1900
DGENRE=
TTITLE0=iuyuiy
TTITLE1=oiuiouy
TTITLE2=oiuyiu
TTITLE3=oiuyoiu
TTITLE4=oiuy
TTITLE5=jfg
TTITLE6=fg
TTITLE7=gfu
TTITLE8=iufi
TTITLE9=uyiufy
TTITLE10=iuyfifu
TTITLE11=iufyiu
TTITLE12=uf
EXTD=
EXTT0=
EXTT1=
EXTT2=
EXTT3=
EXTT4=
EXTT5=
EXTT6=
EXTT7=
EXTT8=
EXTT9=
EXTT10=
EXTT11=
EXTT12=
PLAYORDER=
